<svg width="69" height="56" viewBox="0 0 69 56" fill="none" xmlns="http://www.w3.org/2000/svg">
<rect x="40" y="29" width="13" height="3" fill="#6A6E65"/>
<path d="M40 1.00001C40 0.447723 40.4477 7.62939e-06 41 7.62939e-06H53V8.00001H41C40.4477 8.00001 40 7.55229 40 7.00001V1.00001Z" fill="url(#paint0_linear)"/>
<rect x="48" y="8.00004" width="48" height="8" transform="rotate(90 48 8.00004)" fill="#C4C4C4"/>
<rect x="48" y="8.00003" width="48" height="8" rx="1" transform="rotate(90 48 8.00003)" fill="#969C90"/>
<rect x="32" y="4.00003" width="48" height="8" rx="1" transform="rotate(90 32 4.00003)" fill="#888E83"/>
<rect x="24" y="22" width="8" height="3" fill="url(#paint1_linear)" fill-opacity="0.9"/>
<rect x="32" y="34" width="8" height="3" transform="rotate(-180 32 34)" fill="url(#paint2_linear)" fill-opacity="0.9"/>
<rect x="16" y="8.00003" width="40" height="8" rx="1" transform="rotate(90 16 8.00003)" fill="#969C90"/>
<rect x="8" y="22" width="8" height="3" fill="url(#paint3_linear)" fill-opacity="0.9"/>
<rect x="16" y="34" width="8" height="3" transform="rotate(-180 16 34)" fill="url(#paint4_linear)" fill-opacity="0.9"/>
<path fill-rule="evenodd" clip-rule="evenodd" d="M69 16C69 24.8366 61.8366 32 53 32C47.6449 32 42.9042 29.3692 40 25.3295V6.67058C42.9042 2.63086 47.6449 3.05176e-05 53 3.05176e-05C61.8366 3.05176e-05 69 7.16348 69 16ZM53 8.00004L48 8.00004V9.75467V22.2454V24L53 24C57.4183 24 61 20.4183 61 16C61 11.5818 57.4183 8.00004 53 8.00004Z" fill="#6A6F65"/>
<rect x="48" y="32" width="48" height="8" rx="1" transform="rotate(-180 48 32)" fill="#7A8074"/>
<rect x="50" y="3.05176e-05" width="8" height="3" transform="rotate(90 50 3.05176e-05)" fill="url(#paint5_linear)" fill-opacity="0.9"/>
<rect x="50" y="24" width="8" height="3" transform="rotate(90 50 24)" fill="url(#paint6_linear)" fill-opacity="0.9"/>
<rect x="48" y="3.05176e-05" width="56" height="8" rx="1" transform="rotate(90 48 3.05176e-05)" fill="#7A8074"/>
<rect x="48" y="32" width="48" height="8" rx="1" transform="rotate(-180 48 32)" fill="#7A8074"/>
<rect x="40" y="22" width="8" height="2" fill="url(#paint7_linear)" fill-opacity="0.4"/>
<rect x="48" y="34" width="8" height="2" transform="rotate(-180 48 34)" fill="url(#paint8_linear)" fill-opacity="0.4"/>
<defs>
<linearGradient id="paint0_linear" x1="53" y1="3.99998" x2="40" y2="3.99998" gradientUnits="userSpaceOnUse">
<stop stop-color="#6A6E65"/>
<stop offset="1" stop-color="#72766C"/>
</linearGradient>
<linearGradient id="paint1_linear" x1="28" y1="25" x2="28" y2="22" gradientUnits="userSpaceOnUse">
<stop stop-color="#4C5345"/>
<stop offset="1" stop-color="#888E83"/>
</linearGradient>
<linearGradient id="paint2_linear" x1="36" y1="37" x2="36" y2="34" gradientUnits="userSpaceOnUse">
<stop stop-color="#4C5345"/>
<stop offset="1" stop-color="#888E83"/>
</linearGradient>
<linearGradient id="paint3_linear" x1="12" y1="25" x2="12" y2="22" gradientUnits="userSpaceOnUse">
<stop stop-color="#4A4F45"/>
<stop offset="1" stop-color="#969C90"/>
</linearGradient>
<linearGradient id="paint4_linear" x1="20" y1="37" x2="20" y2="34" gradientUnits="userSpaceOnUse">
<stop stop-color="#4A4F45"/>
<stop offset="1" stop-color="#969C90"/>
</linearGradient>
<linearGradient id="paint5_linear" x1="54" y1="3.00003" x2="54" y2="3.05176e-05" gradientUnits="userSpaceOnUse">
<stop stop-color="#545751"/>
<stop offset="1" stop-color="#6A6E65"/>
</linearGradient>
<linearGradient id="paint6_linear" x1="54" y1="27" x2="54" y2="24" gradientUnits="userSpaceOnUse">
<stop stop-color="#3D413A"/>
<stop offset="1" stop-color="#6A6E65"/>
</linearGradient>
<linearGradient id="paint7_linear" x1="44" y1="24" x2="44" y2="22" gradientUnits="userSpaceOnUse">
<stop stop-color="#7A8074"/>
<stop offset="1" stop-color="#7A8074"/>
</linearGradient>
<linearGradient id="paint8_linear" x1="52" y1="36" x2="52" y2="34" gradientUnits="userSpaceOnUse">
<stop stop-color="#7A8074"/>
<stop offset="1" stop-color="#7A8074"/>
</linearGradient>
</defs>
</svg>
