<svg width="172" height="172" viewBox="0 0 172 172" fill="none" xmlns="http://www.w3.org/2000/svg">
<g filter="url(#filter0_d)">
<rect width="164" height="164" rx="30" fill="white"/>
<path d="M48.1852 88.5912C51.1424 88.5912 53.7248 89.2368 55.9323 90.528C58.1814 91.8192 59.8474 93.4435 60.9304 95.4011V89.1535H66.6782V124.14C66.6782 127.264 66.0118 130.034 64.6789 132.45C63.3461 134.907 61.4302 136.823 58.9311 138.197C56.4737 139.572 53.5998 140.259 50.3094 140.259C45.8111 140.259 42.0626 139.197 39.0637 137.073C36.0648 134.949 34.2947 132.054 33.7532 128.389H39.3761C40.0008 130.471 41.292 132.137 43.2496 133.387C45.2072 134.678 47.5605 135.323 50.3094 135.323C53.4332 135.323 55.9739 134.345 57.9315 132.387C59.9307 130.429 60.9304 127.68 60.9304 124.14V116.955C59.8058 118.955 58.1398 120.621 55.9323 121.954C53.7248 123.286 51.1424 123.953 48.1852 123.953C45.1447 123.953 42.3749 123.203 39.8759 121.704C37.4185 120.204 35.4817 118.101 34.0656 115.394C32.6495 112.686 31.9414 109.604 31.9414 106.147C31.9414 102.648 32.6495 99.587 34.0656 96.963C35.4817 94.2974 37.4185 92.2357 39.8759 90.7779C42.3749 89.3201 45.1447 88.5912 48.1852 88.5912ZM60.9304 106.21C60.9304 103.627 60.4097 101.378 59.3685 99.4621C58.3272 97.5461 56.9111 96.0884 55.1201 95.0887C53.3707 94.0475 51.434 93.5268 49.3098 93.5268C47.1856 93.5268 45.2488 94.0267 43.4995 95.0263C41.7502 96.0259 40.3549 97.4837 39.3136 99.3996C38.2723 101.316 37.7517 103.565 37.7517 106.147C37.7517 108.771 38.2723 111.062 39.3136 113.019C40.3549 114.935 41.7502 116.414 43.4995 117.455C45.2488 118.455 47.1856 118.955 49.3098 118.955C51.434 118.955 53.3707 118.455 55.1201 117.455C56.9111 116.414 58.3272 114.935 59.3685 113.019C60.4097 111.062 60.9304 108.792 60.9304 106.21Z" fill="black"/>
<path d="M81.9712 94.7139C82.9708 92.7563 84.3869 91.236 86.2196 90.1531C88.0938 89.0702 90.3638 88.5287 93.0295 88.5287V94.4015H91.53C85.1575 94.4015 81.9712 97.8585 81.9712 104.773V123.39H76.2858V89.1535H81.9712V94.7139Z" fill="black"/>
<path d="M114.524 123.953C111.317 123.953 108.402 123.224 105.778 121.766C103.195 120.308 101.154 118.247 99.6549 115.581C98.1971 112.874 97.4682 109.75 97.4682 106.21C97.4682 102.711 98.2179 99.6287 99.7173 96.963C101.258 94.2557 103.341 92.194 105.965 90.7779C108.589 89.3201 111.525 88.5912 114.774 88.5912C118.023 88.5912 120.959 89.3201 123.583 90.7779C126.207 92.194 128.269 94.2349 129.768 96.9006C131.309 99.5662 132.08 102.669 132.08 106.21C132.08 109.75 131.289 112.874 129.706 115.581C128.165 118.247 126.061 120.308 123.396 121.766C120.73 123.224 117.773 123.953 114.524 123.953ZM114.524 118.955C116.565 118.955 118.481 118.476 120.272 117.518C122.063 116.56 123.5 115.123 124.583 113.207C125.707 111.291 126.27 108.958 126.27 106.21C126.27 103.461 125.728 101.128 124.645 99.2122C123.562 97.2962 122.146 95.8801 120.397 94.9638C118.648 94.0058 116.753 93.5268 114.712 93.5268C112.629 93.5268 110.713 94.0058 108.964 94.9638C107.256 95.8801 105.882 97.2962 104.84 99.2122C103.799 101.128 103.278 103.461 103.278 106.21C103.278 109 103.778 111.353 104.778 113.269C105.819 115.185 107.194 116.622 108.901 117.58C110.609 118.496 112.483 118.955 114.524 118.955Z" fill="black"/>
<path d="M127.672 65.1956C116.042 76.8255 96.085 75.7245 96.085 75.7245C96.085 75.7245 94.984 55.7677 106.614 44.1378C118.244 32.5079 138.201 33.6089 138.201 33.6089C138.201 33.6089 139.302 53.5657 127.672 65.1956Z" fill="#62BD69"/>
<path d="M96.8383 46.0762C96.8383 62.4659 82.0002 75.7524 82.0002 75.7524C82.0002 75.7524 67.1621 62.4659 67.1621 46.0762C67.1621 29.6865 82.0002 16.4 82.0002 16.4C82.0002 16.4 96.8383 29.6865 96.8383 46.0762Z" fill="#40A048"/>
<path fill-rule="evenodd" clip-rule="evenodd" d="M82.0003 75.7524C82.0003 75.7524 96.8384 62.4659 96.8384 46.0762C96.8384 29.6865 82.0003 16.4 82.0003 16.4L82.0003 75.7524Z" fill="#62BD69"/>
<path d="M57.3861 44.1378C69.016 55.7677 67.915 75.7245 67.915 75.7245C67.915 75.7245 47.9582 76.8255 36.3283 65.1956C24.6984 53.5657 25.7994 33.6089 25.7994 33.6089C25.7994 33.6089 45.7562 32.5078 57.3861 44.1378Z" fill="#40A048"/>
</g>
<defs>
<filter id="filter0_d" x="0" y="0" width="172" height="172" filterUnits="userSpaceOnUse" color-interpolation-filters="sRGB">
<feFlood flood-opacity="0" result="BackgroundImageFix"/>
<feColorMatrix in="SourceAlpha" type="matrix" values="0 0 0 0 0 0 0 0 0 0 0 0 0 0 0 0 0 0 127 0"/>
<feOffset dx="4" dy="4"/>
<feGaussianBlur stdDeviation="2"/>
<feColorMatrix type="matrix" values="0 0 0 0 0.0196354 0 0 0 0 0.3625 0 0 0 0 0.0460096 0 0 0 0.22 0"/>
<feBlend mode="normal" in2="BackgroundImageFix" result="effect1_dropShadow"/>
<feBlend mode="normal" in="SourceGraphic" in2="effect1_dropShadow" result="shape"/>
</filter>
</defs>
</svg>
